# xmcd
#
# Track frame offsets: 
#        150
#        14265
#        24042
#        35877
#        49237
#        61840
#        73822
#        88377
#        103020
#        116280
#
# Disc length: 1945 seconds
#
# Revision: 0
# Processed by: cddbd v1.5.2PL0 Copyright (c) Steve Scherf et al.
# Submitted via: ExactAudioCopy v0.95a5
#
DISCID=8207970a
DTITLE=Joe Tex - His Best
DYEAR=1997
DGENRE=Blues
TTITLE0=Hold What You've Got 
TTITLE1=I Want To Do Everything 
TTITLE2=A Sweet Woman Like You 
TTITLE3=The Love You Save (May Be Your Own)
TTITLE4=S-Y-S-L-J-F-M (The Letter Song)
TTITLE5=I Gotcha 
TTITLE6=Skinny Legs and All 
TTITLE7=Men Are Gettin' Scarce 
TTITLE8=Show Me 
TTITLE9=Ain't Gonna Bump No More (With No Big Fat Woman)
EXTD=
EXTT0=
EXTT1=
EXTT2=
EXTT3=
EXTT4=
EXTT5=
EXTT6=
EXTT7=
EXTT8=
EXTT9=
PLAYORDER=
